<svg width="24" height="23" viewBox="0 0 24 23" fill="none" xmlns="http://www.w3.org/2000/svg">
<path d="M24 17.0417L23.9844 1.8821C23.9844 0.824898 23.2524 0.100098 22.11 0.100098H6.1464C5.0664 0.100098 4.32 0.870497 4.32 1.7765C4.32 2.6669 5.13 3.4073 6.0996 3.4073H11.802L18.5364 3.1949L15.6444 5.6117L0.5724 19.9553C0.2064 20.3177 0 20.7413 0 21.1637C0 22.0541 0.858 22.9001 1.8264 22.9001C2.2704 22.9001 2.7156 22.7189 3.0984 22.3721L18.186 8.0273L20.76 5.2793L20.49 11.4089V17.0873C20.49 18.0233 21.2676 18.8081 22.2372 18.8081C22.469 18.8079 22.6984 18.7621 22.9124 18.6732C23.1265 18.5844 23.3209 18.4542 23.4846 18.2902C23.6483 18.1261 23.7781 17.9314 23.8665 17.7172C23.955 17.503 24.0003 17.2734 24 17.0417Z" fill="white"/>
</svg>
