<svg aria-hidden="true" style="position: absolute; width: 0; height: 0; overflow: hidden;" version="1.1" xmlns="http://www.w3.org/2000/svg" xmlns:xlink="http://www.w3.org/1999/xlink">
<defs>
<symbol id="icon-vector" viewBox="0 0 55 32">
<path fill="#192b39" style="fill: var(--color1, #192b39)" d="M50.601 3.004l-21.417 21.079c-0.467 0.462-1.098 0.722-1.755 0.722s-1.288-0.259-1.755-0.722l-21.417-21.074c-0.47-0.462-1.103-0.721-1.762-0.721s-1.292 0.259-1.762 0.721c-0.232 0.226-0.416 0.495-0.541 0.793s-0.19 0.618-0.19 0.941c0 0.323 0.065 0.643 0.19 0.941s0.31 0.568 0.541 0.793l21.413 21.074c1.41 1.385 3.308 2.161 5.285 2.161s3.874-0.776 5.285-2.161l21.413-21.074c0.232-0.226 0.417-0.496 0.543-0.794s0.191-0.619 0.191-0.943-0.065-0.645-0.191-0.943c-0.126-0.298-0.311-0.568-0.543-0.794-0.47-0.462-1.103-0.721-1.762-0.721s-1.292 0.259-1.762 0.721z"></path>
</symbol>

<symbol id="icon-burger" viewBox="0 0 44 32">
<path  stroke-linejoin="round" stroke-linecap="round" stroke-miterlimit="4" stroke-width="5" d="M4 4h36M4 16h36M4 28h36"></path>
</symbol>


</defs>
</svg>
